<svg xmlns="http://www.w3.org/2000/svg" width="24" height="24" viewBox="0 0 24 24" fill="none">
  <path d="M12 2.163c3.314 0 3.73.012 5.037.072 1.271.062 2.253.301 3.095 1.143.842.843 1.081 1.824 1.143 3.095.06 1.307.072 1.723.072 5.037 0 3.314 0 3.73-.012 5.037-.072 1.271-.062 2.253-.301 3.095-1.143.842-.843 1.081-1.824 1.143-3.095.06-1.307.072-1.723.072-5.037s0-3.73-.072-5.037c-.062-1.271-.301-2.253-1.143-3.095-.843-.842-1.824-1.081-3.095-1.143-1.307-.06-1.723-.072-5.037-.072-3.314 0-3.73.012-5.037.072-1.271.062-2.253.301-3.095 1.143-.842.843-1.081 1.824-1.143 3.095-.06 1.307-.072 1.723-.072 5.037s0 3.73.072 5.037c.062 1.271.301 2.253 1.143 3.095.843.842 1.824 1.081 3.095 1.143 1.307.06 1.723.072 5.037 0zM12 5.229c-3.693 0-6.67 2.977-6.67 6.671s2.977 6.67 6.67 6.67c3.693 0 6.67-2.977 6.67-6.67s-2.977-6.671-6.67-6.671zm0 11.336c-2.567 0-4.665-2.097-4.665-4.665 0-2.567 2.097-4.665 4.665-4.665 2.567 0 4.665 2.097 4.665 4.665 0 2.567-2.097 4.665-4.665 4.665zM17.583 5.825c.184 0 .332-.148.332-.332s-.148-.332-.332-.332c-.184 0-.332.148-.332.332s.148.332.332.332z"></path>
</svg>
